<svg width="15" height="15" viewBox="0 0 15 15" fill="none" xmlns="http://www.w3.org/2000/svg">
<path d="M7.5 0.9375C3.87598 0.9375 0.9375 3.87598 0.9375 7.5C0.9375 11.124 3.87598 14.0625 7.5 14.0625C11.124 14.0625 14.0625 11.124 14.0625 7.5C14.0625 3.87598 11.124 0.9375 7.5 0.9375ZM7.5 12.9492C4.49121 12.9492 2.05078 10.5088 2.05078 7.5C2.05078 4.49121 4.49121 2.05078 7.5 2.05078C10.5088 2.05078 12.9492 4.49121 12.9492 7.5C12.9492 10.5088 10.5088 12.9492 7.5 12.9492ZM7.58203 5.146C8.3584 5.146 8.88574 5.64111 8.94434 6.36768C8.94873 6.4292 9 6.47607 9.06152 6.47607H9.89209C9.93018 6.47607 9.96094 6.44531 9.96094 6.40723C9.96094 5.13721 8.95898 4.24805 7.57764 4.24805C5.96777 4.24805 5.03906 5.33496 5.03906 7.13086V7.89697C5.03906 9.67969 5.96777 10.752 7.57764 10.752C8.95459 10.752 9.96094 9.89062 9.96094 8.68066C9.96094 8.64258 9.93018 8.61182 9.89209 8.61182H9.06006C8.99854 8.61182 8.94873 8.65869 8.94287 8.71875C8.88135 9.39404 8.35547 9.8584 7.58057 9.8584C6.62402 9.8584 6.08496 9.15674 6.08496 7.90137V7.13086C6.08643 5.85645 6.62695 5.146 7.58203 5.146Z" fill="#333333"/>
</svg>
