<svg width="22" height="20" viewBox="0 0 22 20" fill="none" xmlns="http://www.w3.org/2000/svg">
<path d="M4.61326 19.7334C3.51074 19.7335 2.45237 19.3001 1.6666 18.5267L1.57993 18.4401C1.18513 18.0548 0.871439 17.5945 0.657332 17.0861C0.443226 16.5777 0.333039 16.0317 0.333264 15.48C0.331869 14.8829 0.449003 14.2913 0.677877 13.7398C0.906752 13.1882 1.24282 12.6875 1.6666 12.2667L11.9999 2.04672C13.0498 0.953561 14.4871 0.316551 16.0022 0.272907C17.5173 0.229264 18.9888 0.782479 20.0999 1.81338C20.601 2.31325 20.9976 2.90786 21.2666 3.56255C21.5356 4.21725 21.6716 4.91894 21.6666 5.62672C21.6607 6.41719 21.4986 7.19869 21.1897 7.92633C20.8808 8.65397 20.4311 9.31339 19.8666 9.86672L10.5799 19.0667C10.5222 19.1444 10.4483 19.2085 10.3632 19.2547C10.2782 19.3009 10.1842 19.3281 10.0876 19.3343C9.99105 19.3405 9.8943 19.3256 9.80407 19.2906C9.71385 19.2557 9.63231 19.2015 9.56513 19.1319C9.49795 19.0622 9.44673 18.9788 9.41503 18.8874C9.38333 18.796 9.37191 18.6987 9.38156 18.6025C9.39122 18.5062 9.42172 18.4132 9.47094 18.3299C9.52016 18.2466 9.58692 18.175 9.6666 18.1201L18.9266 8.92005C19.3664 8.49077 19.717 7.97885 19.9584 7.41369C20.1998 6.84852 20.3272 6.24124 20.3333 5.62672C20.3381 5.09488 20.2368 4.56742 20.0353 4.0752C19.8339 3.58298 19.5363 3.13587 19.1599 2.76005C18.2985 1.97529 17.1634 1.56006 15.9989 1.6037C14.8344 1.64734 13.7336 2.14635 12.9333 2.99338L2.63326 13.2134C2.32974 13.5081 2.08794 13.8603 1.92197 14.2495C1.756 14.6387 1.66919 15.057 1.6666 15.48C1.66517 15.8515 1.73751 16.2196 1.87942 16.5629C2.02132 16.9062 2.22997 17.218 2.49326 17.48L2.57993 17.5667C3.17643 18.116 3.96477 18.4091 4.77523 18.3829C5.58569 18.3567 6.35346 18.0134 6.91326 17.4267L15.8133 8.62672C15.9816 8.45654 16.1143 8.2545 16.2035 8.03243C16.2928 7.81036 16.3369 7.57271 16.3333 7.33338C16.3347 7.12552 16.2948 6.91944 16.2158 6.72715C16.1369 6.53486 16.0204 6.36022 15.8733 6.21338C15.5366 5.90466 15.092 5.7407 14.6355 5.75692C14.179 5.77313 13.7472 5.96821 13.4333 6.30005L7.29993 12.38C7.17439 12.5047 7.00448 12.5744 6.82757 12.5738C6.65066 12.5731 6.48125 12.5023 6.3566 12.3767C6.23195 12.2512 6.16227 12.0813 6.16289 11.9044C6.16352 11.7275 6.23439 11.558 6.35993 11.4334L12.5199 5.33338C13.0846 4.75493 13.854 4.42165 14.6622 4.40543C15.4704 4.38922 16.2525 4.69138 16.8399 5.24672C17.1101 5.52171 17.3224 5.84803 17.4644 6.20642C17.6064 6.5648 17.6751 6.94799 17.6666 7.33338C17.6659 7.7484 17.5824 8.1591 17.421 8.54144C17.2596 8.92378 17.0235 9.27007 16.7266 9.56005L7.85326 18.3867C6.99319 19.2454 5.82862 19.7295 4.61326 19.7334V19.7334Z" fill="#817F7F"/>
</svg>
