<svg width="25" height="25" viewBox="0 0 25 25" fill="none" xmlns="http://www.w3.org/2000/svg">
<path d="M13.6676 2.8062C14.0831 2.8687 14.4408 3.21345 14.5188 3.6262C14.8298 3.6362 15.0846 3.86195 15.3281 4.0557C15.5716 4.24945 15.8811 4.4312 16.1778 4.3372L16.0648 3.48445C16.0396 3.2937 16.0123 3.0972 15.9151 2.9312C15.7761 2.69445 15.5186 2.55795 15.2741 2.4332C14.9836 2.2852 14.6878 2.1352 14.3671 2.0767C14.0463 2.0182 13.6911 2.0632 13.4401 2.2712C13.3208 2.3702 13.2278 2.54795 13.3163 2.6752C13.3898 2.7817 13.5401 2.78695 13.6676 2.8062Z" fill="#7D4F9E"/>
<path d="M16.7494 3.06628C17.0062 3.08953 17.2394 3.28078 17.3127 3.52778C17.3232 3.56328 17.3302 3.60378 17.3114 3.63603C17.2864 3.67903 17.2284 3.68703 17.1789 3.68528C17.0985 3.68394 17.0194 3.66527 16.9469 3.63053C16.8512 3.58193 16.776 3.50071 16.7349 3.40153C16.6947 3.30197 16.6914 3.1913 16.7257 3.08953" fill="#7D4F9E"/>
<path d="M18.8015 12.9293C18.5205 12.8691 18.2168 12.5983 18.0578 12.3706C17.953 12.2203 17.8805 12.0478 17.7628 11.9073C17.6325 11.7521 17.4545 11.6448 17.275 11.5508C16.4906 11.1419 15.6199 10.9257 14.7353 10.9203C14.1555 10.9168 13.2818 10.8383 12.9483 10.2353C12.893 10.1356 12.9425 10.0138 12.9653 9.90181C12.988 9.78981 12.949 9.63681 12.835 9.63106C12.6175 9.62006 12.567 9.87956 12.293 9.84781C12.095 9.82481 11.8273 9.67781 11.7603 9.48181C11.6993 9.30331 11.7615 8.90431 11.7748 8.71456C11.7993 8.36356 13.1608 8.38556 13.407 8.40606C13.3608 8.67406 13.6315 9.09281 13.9313 8.84906C14.191 8.63806 13.8693 8.05506 14.0955 7.76356C14.3908 7.38256 14.7698 7.00231 15.1028 6.64481C15.1965 6.54406 15.2908 6.44306 15.3983 6.35731C15.633 6.17056 15.9205 6.06506 16.1798 5.91406C15.6733 5.13056 14.755 4.63056 13.8223 4.63031C13.7503 4.63031 13.6715 4.63556 13.6185 4.68431C13.5488 4.74831 13.5528 4.85756 13.5628 4.95156C13.59 5.21056 13.622 5.46931 13.6588 5.72706L12.8613 5.41031C12.664 5.33206 12.457 5.24631 12.3285 5.07731C12.2003 4.90831 12.192 4.62906 12.368 4.51081C12.616 4.34406 12.9925 4.60581 13.2375 4.43506C13.385 4.33206 13.4233 4.10481 13.5895 4.03606C13.7383 3.97481 13.8993 4.07481 14.0565 4.10981C14.2135 4.14481 14.4358 4.01806 14.3598 3.87606C13.9288 3.58881 13.4368 3.28831 12.9285 3.38881C12.6728 3.43931 12.4473 3.58806 12.198 3.66431C11.5968 3.84856 10.9578 3.59531 10.3803 3.34631C10.2923 3.30831 10.2013 3.26856 10.1365 3.19781C10.063 3.11756 10.032 3.00706 9.96929 2.91806C9.77029 2.63631 9.02979 2.63706 9.07829 2.62331C9.01604 2.61806 8.89554 2.75856 8.83329 2.75306C8.77879 2.74831 8.22504 3.31481 8.12379 3.38281C7.78454 3.61131 7.40254 3.70506 6.98929 3.82706C6.58304 3.94706 6.12129 4.41031 6.75354 4.44156C7.27154 4.46706 8.02529 4.28181 8.52954 4.16581C8.62254 4.14456 8.72404 4.12156 8.80979 4.16331C8.89379 4.20406 8.93904 4.29531 8.97479 4.38156C9.28992 5.14887 9.32941 6.00167 9.08654 6.79481C9.00354 7.06281 8.88754 7.34581 8.96929 7.61431C9.08729 8.00131 9.57429 8.20331 9.64704 8.60131C9.67829 8.77256 9.62579 8.95906 9.69679 9.11781C9.86354 9.49006 10.3723 9.32356 10.6595 9.25706C10.658 9.25756 10.702 9.83656 10.7415 9.90006C10.881 10.1238 11.246 10.1808 11.476 10.2451C12.3243 10.4823 13.0705 10.8431 13.835 11.2791C14.02 11.3846 14.2135 11.4981 14.3213 11.6821C14.61 12.1746 14.1318 12.7576 14.07 13.3251C14.0536 13.4865 14.0716 13.6495 14.1231 13.8034C14.1746 13.9572 14.2583 14.0983 14.3685 14.2173C14.4943 14.3513 14.6515 14.4531 14.7765 14.5883C15.0678 14.9033 15.1493 15.3663 15.1033 15.7931C15.0575 16.2198 14.9005 16.6251 14.769 17.0336C14.5231 17.7984 14.3638 18.5884 14.294 19.3888C14.2733 19.6271 14.4013 19.6891 14.6148 19.6236C14.919 19.5306 14.8643 19.2433 14.9413 19.0168C15.1625 18.3643 15.8665 17.7831 16.4668 17.4988C16.7335 17.3726 17.0263 17.2768 17.2333 17.0666C17.5253 16.7701 17.5893 16.3031 17.8823 16.0073C18.1318 15.7553 18.5105 15.6661 18.7623 15.4161C19.0353 15.1448 19.1305 14.7473 19.3078 14.4168C19.4413 14.1681 19.6968 13.9648 19.8095 13.7146C20.1468 12.9648 19.2355 13.0223 18.8015 12.9293Z" fill="#7D4F9E"/>
<path d="M12.4995 0.651978C5.96402 0.651978 0.666016 5.94998 0.666016 12.4855C0.666016 19.021 5.96402 24.319 12.4995 24.319C19.035 24.319 24.333 19.021 24.333 12.4855C24.333 5.94998 19.035 0.651978 12.4995 0.651978ZM16.4455 22.5717C16.1658 22.461 15.8578 22.422 15.562 22.478C15.1273 22.5602 14.671 22.8197 14.273 22.626C13.8788 22.4342 13.7993 21.863 14.0148 21.481C14.2303 21.099 14.6465 20.877 15.0588 20.7277C14.7785 20.501 14.3493 20.6062 14.0588 20.82C13.7683 21.0335 13.5515 21.3365 13.2555 21.5422C12.9595 21.748 12.5195 21.8297 12.258 21.5815C12.2493 21.7862 12.01 21.9035 11.805 21.9027C11.6 21.902 11.3968 21.8297 11.1938 21.857C10.9195 21.8935 10.696 22.1092 10.5745 22.3577C10.4605 22.5912 10.4215 22.8527 10.3883 23.111C5.42202 22.1257 1.66602 17.7367 1.66602 12.4855C1.66602 6.51173 6.52602 1.65198 12.4995 1.65198C14.6623 1.65198 16.677 2.29148 18.37 3.38773C18.3373 3.55873 18.3253 3.73098 18.3545 3.90298C18.4215 4.29898 18.78 4.67623 19.1765 4.61098L19.249 4.32323C19.7495 4.42398 20.176 4.82848 20.303 5.32298C20.2279 5.37294 20.1687 5.4434 20.1324 5.52599C20.0961 5.60859 20.0843 5.69985 20.0983 5.78898C20.7068 5.90323 21.0988 6.52823 21.2018 7.13873C21.3048 7.74923 21.196 8.37373 21.203 8.99298C21.214 9.96673 21.6075 11.037 22.495 11.4377C22.7418 11.5492 23.0363 11.5937 23.2868 11.5092C23.3158 11.8312 23.333 12.1565 23.333 12.4857C23.333 17.067 20.4728 20.9905 16.4455 22.5717Z" fill="#7D4F9E"/>
</svg>
