<svg width="29" height="26" viewBox="0 0 29 26" fill="none" xmlns="http://www.w3.org/2000/svg">
<path d="M26.3467 12.345C25.3637 10.4646 24.1939 8.93102 22.8373 7.74426L21.4145 9.03614C22.5747 10.0429 23.5853 11.3599 24.4591 13.0001C22.1326 17.3724 18.8301 19.4493 14.3169 19.4493C12.9621 19.4493 11.7143 19.2599 10.5734 18.8811L9.03182 20.2809C10.6164 20.9453 12.3781 21.2775 14.3169 21.2775C19.6914 21.2775 23.7013 18.7359 26.3467 13.6527C26.453 13.4482 26.5082 13.2249 26.5082 12.9989C26.5082 12.7728 26.453 12.5495 26.3467 12.345V12.345ZM24.569 4.20379L23.377 3.12012C23.3562 3.10123 23.3315 3.08625 23.3044 3.07603C23.2772 3.06581 23.2481 3.06055 23.2187 3.06055C23.1893 3.06055 23.1602 3.06581 23.133 3.07603C23.1059 3.08625 23.0812 3.10123 23.0604 3.12012L20.0021 5.89582C18.3159 5.11379 16.4208 4.72278 14.3169 4.72278C8.94234 4.72278 4.93241 7.26438 2.28708 12.3476C2.18076 12.552 2.12561 12.7753 2.12561 13.0014C2.12561 13.2275 2.18076 13.4508 2.28708 13.6552C3.34391 15.6763 4.61624 17.2963 6.10407 18.5152L3.145 21.2013C3.10308 21.2394 3.07953 21.291 3.07953 21.3449C3.07953 21.3987 3.10308 21.4504 3.145 21.4885L4.33875 22.5724C4.3807 22.6105 4.43758 22.6318 4.49688 22.6318C4.55619 22.6318 4.61306 22.6105 4.65501 22.5724L24.569 4.49121C24.5898 4.47235 24.6063 4.44995 24.6176 4.42529C24.6289 4.40063 24.6346 4.3742 24.6346 4.3475C24.6346 4.32081 24.6289 4.29438 24.6176 4.26972C24.6063 4.24506 24.5898 4.22266 24.569 4.20379ZM4.1746 13.0001C6.50394 8.62786 9.8064 6.5509 14.3169 6.5509C15.842 6.5509 17.2287 6.78856 18.4868 7.27174L16.5209 9.0567C15.59 8.60567 14.524 8.43828 13.4802 8.57922C12.4365 8.72016 11.4703 9.16197 10.7241 9.83947C9.97798 10.517 9.49141 11.3943 9.33619 12.342C9.18097 13.2897 9.36532 14.2576 9.86205 15.103L7.52935 17.2211C6.23829 16.1864 5.12535 14.7846 4.1746 13.0001ZM11.0731 13.0001C11.0736 12.5524 11.1904 12.1111 11.414 11.712C11.6377 11.313 11.9618 10.9675 12.3601 10.7036C12.7584 10.4396 13.2197 10.2647 13.7064 10.1931C14.1931 10.1214 14.6916 10.1551 15.1614 10.2912L11.2216 13.8685C11.1229 13.5878 11.0728 13.2948 11.0731 13.0001V13.0001Z" fill="#D9DDDD"/>
<path d="M14.2054 15.8441C14.1087 15.8441 14.0133 15.84 13.9188 15.8321L12.4418 17.1733C13.3301 17.4822 14.298 17.5508 15.2284 17.3709C16.1589 17.191 17.012 16.7702 17.6846 16.1594C18.3573 15.5487 18.8207 14.774 19.0188 13.9292C19.217 13.0844 19.1414 12.2056 18.8012 11.3989L17.3242 12.7401C17.3328 12.8259 17.3373 12.9125 17.3373 13.0003C17.3375 13.3738 17.2567 13.7437 17.0993 14.0888C16.942 14.4339 16.7113 14.7475 16.4205 15.0116C16.1296 15.2757 15.7843 15.4852 15.4042 15.628C15.0241 15.7708 14.6168 15.8443 14.2054 15.8441Z" fill="#D9DDDD"/>
</svg>
