<svg width="25" height="25" viewBox="0 0 25 25" fill="none" xmlns="http://www.w3.org/2000/svg">
<path d="M13.6673 2.8062C14.0828 2.8687 14.4405 3.21345 14.5185 3.6262C14.8295 3.6362 15.0843 3.86195 15.3278 4.0557C15.5713 4.24945 15.8808 4.4312 16.1775 4.3372L16.0645 3.48445C16.0393 3.2937 16.012 3.0972 15.9148 2.9312C15.7758 2.69445 15.5183 2.55795 15.2738 2.4332C14.9833 2.2852 14.6875 2.1352 14.3668 2.0767C14.046 2.0182 13.6908 2.0632 13.4398 2.2712C13.3205 2.3702 13.2275 2.54795 13.316 2.6752C13.3895 2.7817 13.5398 2.78695 13.6673 2.8062Z" fill="#646464"/>
<path d="M16.7492 3.06628C17.006 3.08953 17.2392 3.28078 17.3125 3.52778C17.323 3.56328 17.33 3.60378 17.3112 3.63603C17.2862 3.67903 17.2282 3.68703 17.1787 3.68528C17.0984 3.68394 17.0192 3.66527 16.9467 3.63053C16.851 3.58193 16.7758 3.50071 16.7347 3.40153C16.6945 3.30197 16.6912 3.1913 16.7255 3.08953" fill="#646464"/>
<path d="M18.802 12.9293C18.521 12.8691 18.2172 12.5983 18.0582 12.3706C17.9535 12.2203 17.881 12.0478 17.7632 11.9073C17.633 11.7521 17.455 11.6448 17.2755 11.5508C16.491 11.1419 15.6204 10.9257 14.7357 10.9203C14.156 10.9168 13.2822 10.8383 12.9487 10.2353C12.8935 10.1356 12.943 10.0138 12.9657 9.90181C12.9885 9.78981 12.9495 9.63681 12.8355 9.63106C12.618 9.62006 12.5675 9.87956 12.2935 9.84781C12.0955 9.82481 11.8277 9.67781 11.7607 9.48181C11.6997 9.30331 11.762 8.90431 11.7752 8.71456C11.7997 8.36356 13.1612 8.38556 13.4075 8.40606C13.3612 8.67406 13.632 9.09281 13.9317 8.84906C14.1915 8.63806 13.8697 8.05506 14.096 7.76356C14.3912 7.38256 14.7702 7.00231 15.1032 6.64481C15.197 6.54406 15.2912 6.44306 15.3987 6.35731C15.6335 6.17056 15.921 6.06506 16.1802 5.91406C15.6737 5.13056 14.7555 4.63056 13.8227 4.63031C13.7507 4.63031 13.672 4.63556 13.619 4.68431C13.5492 4.74831 13.5532 4.85756 13.5632 4.95156C13.5905 5.21056 13.6225 5.46931 13.6592 5.72706L12.8617 5.41031C12.6645 5.33206 12.4575 5.24631 12.329 5.07731C12.2007 4.90831 12.1925 4.62906 12.3685 4.51081C12.6165 4.34406 12.993 4.60581 13.238 4.43506C13.3855 4.33206 13.4237 4.10481 13.59 4.03606C13.7387 3.97481 13.8997 4.07481 14.057 4.10981C14.214 4.14481 14.4362 4.01806 14.3602 3.87606C13.9292 3.58881 13.4372 3.28831 12.929 3.38881C12.6732 3.43931 12.4477 3.58806 12.1985 3.66431C11.5972 3.84856 10.9582 3.59531 10.3807 3.34631C10.2927 3.30831 10.2017 3.26856 10.137 3.19781C10.0635 3.11756 10.0325 3.00706 9.96972 2.91806C9.77072 2.63631 9.03022 2.63706 9.07872 2.62331C9.01647 2.61806 8.89597 2.75856 8.83372 2.75306C8.77922 2.74831 8.22547 3.31481 8.12422 3.38281C7.78497 3.61131 7.40297 3.70506 6.98972 3.82706C6.58347 3.94706 6.12172 4.41031 6.75397 4.44156C7.27197 4.46706 8.02572 4.28181 8.52997 4.16581C8.62297 4.14456 8.72447 4.12156 8.81022 4.16331C8.89422 4.20406 8.93947 4.29531 8.97522 4.38156C9.29034 5.14887 9.32983 6.00167 9.08697 6.79481C9.00397 7.06281 8.88797 7.34581 8.96972 7.61431C9.08772 8.00131 9.57472 8.20331 9.64747 8.60131C9.67872 8.77256 9.62622 8.95906 9.69722 9.11781C9.86397 9.49006 10.3727 9.32356 10.66 9.25706C10.6585 9.25756 10.7025 9.83656 10.742 9.90006C10.8815 10.1238 11.2465 10.1808 11.4765 10.2451C12.3247 10.4823 13.071 10.8431 13.8355 11.2791C14.0205 11.3846 14.214 11.4981 14.3217 11.6821C14.6105 12.1746 14.1322 12.7576 14.0705 13.3251C14.054 13.4865 14.0721 13.6495 14.1235 13.8034C14.175 13.9572 14.2587 14.0983 14.369 14.2173C14.4947 14.3513 14.652 14.4531 14.777 14.5883C15.0682 14.9033 15.1497 15.3663 15.1037 15.7931C15.058 16.2198 14.901 16.6251 14.7695 17.0336C14.5235 17.7984 14.3642 18.5884 14.2945 19.3888C14.2737 19.6271 14.4017 19.6891 14.6152 19.6236C14.9195 19.5306 14.8647 19.2433 14.9417 19.0168C15.163 18.3643 15.867 17.7831 16.4672 17.4988C16.734 17.3726 17.0267 17.2768 17.2337 17.0666C17.5257 16.7701 17.5897 16.3031 17.8827 16.0073C18.1322 15.7553 18.511 15.6661 18.7627 15.4161C19.0357 15.1448 19.131 14.7473 19.3082 14.4168C19.4417 14.1681 19.6972 13.9648 19.81 13.7146C20.1472 12.9648 19.236 13.0223 18.802 12.9293Z" fill="#646464"/>
<path d="M12.5 0.651978C5.9645 0.651978 0.666504 5.94998 0.666504 12.4855C0.666504 19.021 5.9645 24.319 12.5 24.319C19.0355 24.319 24.3335 19.021 24.3335 12.4855C24.3335 5.94998 19.0355 0.651978 12.5 0.651978ZM16.446 22.5717C16.1663 22.461 15.8583 22.422 15.5625 22.478C15.1278 22.5602 14.6715 22.8197 14.2735 22.626C13.8793 22.4342 13.7998 21.863 14.0153 21.481C14.2308 21.099 14.647 20.877 15.0593 20.7277C14.779 20.501 14.3498 20.6062 14.0593 20.82C13.7688 21.0335 13.552 21.3365 13.256 21.5422C12.96 21.748 12.52 21.8297 12.2585 21.5815C12.2498 21.7862 12.0105 21.9035 11.8055 21.9027C11.6005 21.902 11.3973 21.8297 11.1943 21.857C10.92 21.8935 10.6965 22.1092 10.575 22.3577C10.461 22.5912 10.422 22.8527 10.3888 23.111C5.4225 22.1257 1.6665 17.7367 1.6665 12.4855C1.6665 6.51173 6.5265 1.65198 12.5 1.65198C14.6628 1.65198 16.6775 2.29148 18.3705 3.38773C18.3378 3.55873 18.3258 3.73098 18.355 3.90298C18.422 4.29898 18.7805 4.67623 19.177 4.61098L19.2495 4.32323C19.75 4.42398 20.1765 4.82848 20.3035 5.32298C20.2284 5.37294 20.1692 5.4434 20.1329 5.52599C20.0966 5.60859 20.0848 5.69985 20.0988 5.78898C20.7073 5.90323 21.0993 6.52823 21.2023 7.13873C21.3053 7.74923 21.1965 8.37373 21.2035 8.99298C21.2145 9.96673 21.608 11.037 22.4955 11.4377C22.7423 11.5492 23.0368 11.5937 23.2873 11.5092C23.3163 11.8312 23.3335 12.1565 23.3335 12.4857C23.3335 17.067 20.4733 20.9905 16.446 22.5717Z" fill="#646464"/>
</svg>
