<svg width="20" height="20" viewBox="0 0 20 20" fill="none" xmlns="http://www.w3.org/2000/svg">
<path d="M15 8.75H13.75V5C13.75 4.00544 13.3549 3.05161 12.6517 2.34835C11.9484 1.64509 10.9946 1.25 10 1.25C9.00544 1.25 8.05161 1.64509 7.34835 2.34835C6.64509 3.05161 6.25 4.00544 6.25 5V8.75H5C4.66848 8.75 4.35054 8.8817 4.11612 9.11612C3.8817 9.35054 3.75 9.66848 3.75 10V17.5C3.75 17.8315 3.8817 18.1495 4.11612 18.3839C4.35054 18.6183 4.66848 18.75 5 18.75H15C15.3315 18.75 15.6495 18.6183 15.8839 18.3839C16.1183 18.1495 16.25 17.8315 16.25 17.5V10C16.25 9.66848 16.1183 9.35054 15.8839 9.11612C15.6495 8.8817 15.3315 8.75 15 8.75ZM7.5 5C7.5 4.33696 7.76339 3.70107 8.23223 3.23223C8.70107 2.76339 9.33696 2.5 10 2.5C10.663 2.5 11.2989 2.76339 11.7678 3.23223C12.2366 3.70107 12.5 4.33696 12.5 5V8.75H7.5V5ZM15 17.5H5V10H15V17.5Z" fill="black"/>
</svg>
