<svg width="30" height="30" viewBox="0 0 30 30" fill="none" xmlns="http://www.w3.org/2000/svg">
<path d="M14.25 3.75H11.75V16.25H14.25V3.75ZM20.2875 6.4625L18.5125 8.2375C19.5249 9.04961 20.3416 10.0791 20.902 11.2498C21.4624 12.4204 21.7523 13.7021 21.75 15C21.75 19.8375 17.8375 23.75 13 23.75C11.194 23.7511 9.43203 23.1929 7.95607 22.1522C6.48011 21.1115 5.36262 19.6393 4.75711 17.9378C4.15161 16.2364 4.0878 14.3892 4.57446 12.65C5.06112 10.9109 6.07437 9.36508 7.475 8.225L5.7125 6.4625C4.47027 7.51126 3.47206 8.81865 2.78764 10.2933C2.10321 11.7679 1.74908 13.3743 1.75 15C1.75 17.9837 2.93527 20.8452 5.04505 22.955C7.15483 25.0647 10.0163 26.25 13 26.25C15.9837 26.25 18.8452 25.0647 20.955 22.955C23.0647 20.8452 24.25 17.9837 24.25 15C24.25 11.575 22.7125 8.525 20.2875 6.4625Z" fill="#646464"/>
</svg>
