<svg width="28" height="28" viewBox="0 0 28 28" fill="none" xmlns="http://www.w3.org/2000/svg">
<path d="M23.3917 12.8334H4.60833C3.99622 12.8334 3.5 13.3296 3.5 13.9417V14.0584C3.5 14.6705 3.99622 15.1667 4.60833 15.1667H23.3917C24.0038 15.1667 24.5 14.6705 24.5 14.0584V13.9417C24.5 13.3296 24.0038 12.8334 23.3917 12.8334Z" fill="#646464"/>
<path d="M23.3917 18.6666H4.60833C3.99622 18.6666 3.5 19.1628 3.5 19.775V19.8916C3.5 20.5037 3.99622 21 4.60833 21H23.3917C24.0038 21 24.5 20.5037 24.5 19.8916V19.775C24.5 19.1628 24.0038 18.6666 23.3917 18.6666Z" fill="#646464"/>
<path d="M23.3917 7H4.60833C3.99622 7 3.5 7.49622 3.5 8.10833V8.225C3.5 8.83712 3.99622 9.33333 4.60833 9.33333H23.3917C24.0038 9.33333 24.5 8.83712 24.5 8.225V8.10833C24.5 7.49622 24.0038 7 23.3917 7Z" fill="#646464"/>
</svg>
