<svg width="20" height="20" viewBox="0 0 20 20" fill="none" xmlns="http://www.w3.org/2000/svg">
<path d="M18.75 17.8689L14.0312 13.1251C15.1593 11.764 15.7197 10.0206 15.5961 8.25712C15.4724 6.49362 14.6742 4.84553 13.3672 3.65516C12.0602 2.4648 10.3448 1.82366 8.57749 1.86491C6.81014 1.90616 5.1266 2.62663 3.87656 3.87668C2.62651 5.12673 1.90604 6.81027 1.86479 8.57762C1.82354 10.345 2.46468 12.0603 3.65504 13.3673C4.8454 14.6743 6.4935 15.4725 8.257 15.5962C10.0205 15.7199 11.7639 15.1594 13.125 14.0314L17.8687 18.7501L18.75 17.8689ZM3.12499 8.75011C3.12499 7.63759 3.45489 6.55005 4.07297 5.62503C4.69105 4.7 5.56956 3.97903 6.59739 3.55329C7.62523 3.12754 8.75623 3.01615 9.84737 3.23319C10.9385 3.45023 11.9408 3.98596 12.7275 4.77263C13.5141 5.5593 14.0499 6.56158 14.2669 7.65273C14.4839 8.74387 14.3726 9.87487 13.9468 10.9027C13.5211 11.9305 12.8001 12.809 11.8751 13.4271C10.95 14.0452 9.86251 14.3751 8.74999 14.3751C7.25814 14.3751 5.8274 13.7825 4.77251 12.7276C3.71762 11.6727 3.12499 10.242 3.12499 8.75011Z" fill="#4A4A4A"/>
</svg>
