<svg width="29" height="26" viewBox="0 0 29 26" fill="none" xmlns="http://www.w3.org/2000/svg">
<path d="M26.3467 12.3449C23.6957 7.27441 19.6886 4.72266 14.3169 4.72266C8.94234 4.72266 4.938 7.27441 2.28708 12.3475C2.18076 12.5519 2.12561 12.7752 2.12561 13.0013C2.12561 13.2274 2.18076 13.4506 2.28708 13.6551C4.938 18.7256 8.94513 21.2773 14.3169 21.2773C19.6914 21.2773 23.6957 18.7256 26.3467 13.6525C26.562 13.2412 26.562 12.7639 26.3467 12.3449ZM14.3169 19.4492C9.8064 19.4492 6.50394 17.3723 4.1746 13C6.50394 8.62773 9.8064 6.55078 14.3169 6.55078C18.8273 6.55078 22.1298 8.62773 24.4591 13C22.1326 17.3723 18.8301 19.4492 14.3169 19.4492ZM14.205 8.53125C11.487 8.53125 9.28349 10.532 9.28349 13C9.28349 15.468 11.487 17.4688 14.205 17.4688C16.923 17.4688 19.1266 15.468 19.1266 13C19.1266 10.532 16.923 8.53125 14.205 8.53125ZM14.205 15.8438C12.4741 15.8438 11.0731 14.5717 11.0731 13C11.0731 11.4283 12.4741 10.1562 14.205 10.1562C15.9359 10.1562 17.3369 11.4283 17.3369 13C17.3369 14.5717 15.9359 15.8438 14.205 15.8438Z" fill="#D9DDDD"/>
</svg>
