<svg width="25" height="18" viewBox="0 0 25 18" fill="none" xmlns="http://www.w3.org/2000/svg">
<path d="M24.3467 8.34492C21.6957 3.27441 17.6886 0.722656 12.3169 0.722656C6.94234 0.722656 2.938 3.27441 0.287085 8.34746C0.180756 8.5519 0.12561 8.77518 0.12561 9.00127C0.12561 9.22736 0.180756 9.45064 0.287085 9.65508C2.938 14.7256 6.94513 17.2773 12.3169 17.2773C17.6914 17.2773 21.6957 14.7256 24.3467 9.65254C24.562 9.24121 24.562 8.76387 24.3467 8.34492ZM12.3169 15.4492C7.8064 15.4492 4.50394 13.3723 2.1746 9C4.50394 4.62773 7.8064 2.55078 12.3169 2.55078C16.8273 2.55078 20.1298 4.62773 22.4591 9C20.1326 13.3723 16.8301 15.4492 12.3169 15.4492ZM12.205 4.53125C9.48699 4.53125 7.28349 6.53203 7.28349 9C7.28349 11.468 9.48699 13.4688 12.205 13.4688C14.923 13.4688 17.1266 11.468 17.1266 9C17.1266 6.53203 14.923 4.53125 12.205 4.53125ZM12.205 11.8438C10.4741 11.8438 9.07314 10.5717 9.07314 9C9.07314 7.42832 10.4741 6.15625 12.205 6.15625C13.9359 6.15625 15.3369 7.42832 15.3369 9C15.3369 10.5717 13.9359 11.8438 12.205 11.8438Z" fill="#D9DDDD"/>
</svg>
