<svg width="16" height="14" viewBox="0 0 16 14" fill="none" xmlns="http://www.w3.org/2000/svg">
<path d="M0.046875 2.875C0.046875 2.34375 0.348958 2.05729 0.953125 2.01562L3.28125 2.03125C3.4375 2.03125 3.54167 2.10938 3.59375 2.26562C3.83333 3.04688 4.10156 3.72135 4.39844 4.28906C4.69531 4.85677 5.08333 5.51042 5.5625 6.25C5.60417 6.34375 5.67188 6.39062 5.76562 6.39062C5.83854 6.39062 5.89583 6.35417 5.9375 6.28125L5.98438 6.10938L6 3.40625C6 3.21875 5.95573 3.09375 5.86719 3.03125C5.77865 2.96875 5.61458 2.92188 5.375 2.89062C5.1875 2.85938 5.09375 2.74479 5.09375 2.54688C5.09375 2.50521 5.09896 2.47396 5.10938 2.45312C5.32812 1.77604 5.95312 1.4375 6.98438 1.4375L7.85938 1.42188C8.25521 1.42188 8.58333 1.52083 8.84375 1.71875C9.10417 1.91667 9.23438 2.22917 9.23438 2.65625V6.20312C9.30729 6.25521 9.375 6.28125 9.4375 6.28125C9.59375 6.28125 9.72917 6.1875 9.84375 6C10.9896 4.39583 11.6094 3.32292 11.7031 2.78125C11.7031 2.77083 11.7135 2.74479 11.7344 2.70312C11.8073 2.54688 11.9271 2.41146 12.0938 2.29688C12.2604 2.18229 12.4062 2.10417 12.5312 2.0625C12.5729 2.04167 12.6198 2.03125 12.6719 2.03125H15.0938L15.25 2.04688C15.4583 2.04688 15.6198 2.14583 15.7344 2.34375C15.776 2.40625 15.8047 2.47396 15.8203 2.54688C15.8359 2.61979 15.8464 2.69271 15.8516 2.76562C15.8568 2.83854 15.8594 2.88021 15.8594 2.89062V3C15.7865 3.42708 15.6016 3.88281 15.3047 4.36719C15.0078 4.85156 14.6302 5.375 14.1719 5.9375C13.7135 6.5 13.4271 6.86979 13.3125 7.04688C13.2188 7.17188 13.1719 7.28646 13.1719 7.39062C13.1719 7.47396 13.2135 7.56771 13.2969 7.67188L15.5781 10.5469C15.7031 10.7135 15.7656 10.8958 15.7656 11.0938C15.7656 11.3333 15.6719 11.5312 15.4844 11.6875C15.2969 11.8438 15.0729 11.9323 14.8125 11.9531L14.5469 11.9688H12.1719C12.1615 11.9688 12.1406 11.9714 12.1094 11.9766C12.0781 11.9818 12.0573 11.9844 12.0469 11.9844C11.8177 11.9844 11.6042 11.8854 11.4062 11.6875C11.3333 11.6042 10.8438 10.9896 9.9375 9.84375C9.88542 9.77083 9.8125 9.70312 9.71875 9.64062C9.67708 9.80729 9.6224 10.0469 9.55469 10.3594C9.48698 10.6719 9.4375 10.8958 9.40625 11.0312L9.35938 11.2969C9.25521 11.6615 9.03646 11.8802 8.70312 11.9531L8.48438 11.9688H6.95312C6.08854 11.9688 5.22656 11.5729 4.36719 10.7812C3.50781 9.98958 2.73438 8.96615 2.04688 7.71094C1.35938 6.45573 0.71875 4.99479 0.125 3.32812C0.0729167 3.19271 0.046875 3.04167 0.046875 2.875ZM9.4375 6.92188C9.21875 6.92188 9.02083 6.86198 8.84375 6.74219C8.66667 6.6224 8.57812 6.45833 8.57812 6.25V2.65625C8.57812 2.44792 8.52604 2.29948 8.42188 2.21094C8.31771 2.1224 8.13542 2.07812 7.875 2.07812L6.98438 2.10938C6.53646 2.10938 6.19792 2.1875 5.96875 2.34375C6.42708 2.5625 6.65625 2.91667 6.65625 3.40625V6.15625C6.63542 6.41667 6.53125 6.63281 6.34375 6.80469C6.15625 6.97656 5.94792 7.0625 5.71875 7.0625C5.40625 7.0625 5.16667 6.91146 5 6.60938C4.1875 5.38021 3.58333 4.21354 3.1875 3.10938L3.04688 2.70312L0.96875 2.6875C0.833333 2.6875 0.757812 2.69531 0.742188 2.71094C0.726562 2.72656 0.71875 2.77083 0.71875 2.84375C0.71875 2.9375 0.729167 3.03646 0.75 3.14062L1.07812 4.01562C1.95312 6.27604 2.90365 8.05729 3.92969 9.35938C4.95573 10.6615 5.96354 11.3125 6.95312 11.3125H8.51562C8.57812 11.3125 8.625 11.2943 8.65625 11.2578C8.6875 11.2214 8.71354 11.151 8.73438 11.0469L8.76562 10.8906L9.0625 9.51562C9.14583 9.32812 9.21875 9.20312 9.28125 9.14062C9.39583 9.02604 9.53125 8.96875 9.6875 8.96875C9.9375 8.96875 10.1927 9.11979 10.4531 9.42188L11.7812 11.1094C11.8646 11.2448 11.9531 11.3125 12.0469 11.3125H14.625C14.9375 11.3125 15.0938 11.2344 15.0938 11.0781C15.0938 11.026 15.0781 10.974 15.0469 10.9219L12.7812 8.09375C12.6042 7.875 12.5156 7.64062 12.5156 7.39062C12.5156 7.14062 12.599 6.90104 12.7656 6.67188C12.901 6.46354 13.1641 6.11719 13.5547 5.63281C13.9453 5.14844 14.2865 4.69531 14.5781 4.27344C14.8698 3.85156 15.0625 3.46875 15.1562 3.125L15.2031 2.92188C15.1927 2.90104 15.1875 2.86719 15.1875 2.82031C15.1875 2.77344 15.1823 2.73438 15.1719 2.70312H12.7188C12.5625 2.76562 12.4375 2.85938 12.3438 2.98438L12.25 3.28125C11.9896 4 11.3073 5.10938 10.2031 6.60938C9.98438 6.81771 9.72917 6.92188 9.4375 6.92188Z" fill="#7D4F9E"/>
</svg>
