<svg width="25" height="25" viewBox="0 0 25 25" fill="none" xmlns="http://www.w3.org/2000/svg">
<path d="M23.4375 20.3125V10.9375C23.4375 10.5231 23.2729 10.1257 22.9799 9.83265C22.6868 9.53962 22.2894 9.375 21.875 9.375H19.5312V10.9375H21.875V20.3125H3.125L3.125 10.9375H5.46875V9.375H3.125C2.7106 9.375 2.31317 9.53962 2.02015 9.83265C1.72712 10.1257 1.5625 10.5231 1.5625 10.9375L1.5625 20.3125C1.5625 20.7269 1.72712 21.1243 2.02015 21.4174C2.31317 21.7104 2.7106 21.875 3.125 21.875H21.875C22.2894 21.875 22.6868 21.7104 22.9799 21.4174C23.2729 21.1243 23.4375 20.7269 23.4375 20.3125Z" fill="#4A4A4A"/>
<path d="M16.0859 8.91406L13.2812 6.11719V17.1875H11.7188V6.11719L8.91406 8.91406L7.8125 7.8125L12.5 3.125L17.1875 7.8125L16.0859 8.91406Z" fill="#4A4A4A"/>
</svg>
